<svg xmlns="http://www.w3.org/2000/svg" width="64" height="64" viewBox="0 0 64 64" fill="none">
  <defs>
    <linearGradient id="brandGrad" x1="0%" y1="0%" x2="100%" y2="100%">
      <stop offset="0%" stop-color="#10B981"/>
      <stop offset="100%" stop-color="#059669"/>
    </linearGradient>
  </defs>
  <rect width="64" height="64" rx="18" fill="url(#brandGrad)"/>
  <g transform="translate(14, 14) scale(1.5)" stroke="#FFFFFF" stroke-width="2.2" stroke-linecap="round" stroke-linejoin="round" fill="none">
    <path d="m12 3-1.912 5.813a2 2 0 0 1-1.275 1.275L3 12l5.813 1.912a2 2 0 0 1 1.275 1.275L12 21l1.912-5.813a2 2 0 0 1 1.275-1.275L21 12l-5.813-1.912a2 2 0 0 1-1.275-1.275L12 3Z"/>
    <path d="M5 3v4M3 5h4M19 17v4M17 19h4"/>
  </g>
</svg>